# xmcd
#
# Track frame offsets:
#        150
#        17057
#        32832
#
# Disc length: 666 seconds
#
# Revision: 2
# Processed by: cddbd v1.5.2PL0 Copyright (c) Steve Scherf et al.
# Submitted via: ExactAudioCopy v0.90a11
#
DISCID=1b029803
DTITLE=Nickelback / How You Remind Me
DYEAR=2001
DGENRE=Rock
TTITLE0=How You Remind Me
TTITLE1=How You Remind Me (Acoustic)
TTITLE2=Little Friend
EXTD= YEAR: 2001 ID3G:  17
EXTT0=
EXTT1=
EXTT2=
PLAYORDER=
.
